<svg xmlns="http://www.w3.org/2000/svg" viewBox="0 0 32 32" fill="currentColor">
    <path
        d="M16 2.667c-7.364 0-13.333 5.969-13.333 13.333 0 5.894 3.824 10.889 9.127 12.654.667.123.911-.289.911-.644 0-.318-.012-1.159-.018-2.277-3.713.807-4.496-1.791-4.496-1.791-.606-1.539-1.48-1.949-1.48-1.949-1.211-.828.092-.811.092-.811 1.338.094 2.043 1.374 2.043 1.374 1.191 2.043 3.127 1.453 3.89 1.111.121-.863.467-1.453.85-1.788-2.963-.337-6.077-1.482-6.077-6.594 0-1.456.52-2.646 1.373-3.579-.137-.337-.595-1.693.13-3.532 0 0 1.117-.358 3.663 1.366a12.77 12.77 0 0 1 3.336-.449c1.132.005 2.274.153 3.336.449 2.545-1.724 3.66-1.366 3.66-1.366.727 1.839.269 3.195.132 3.532.855.933 1.372 2.123 1.372 3.579 0 5.125-3.118 6.253-6.088 6.584.479.413.905 1.228.905 2.475 0 1.788-.016 3.233-.016 3.673 0 .358.24.771.917.641C25.513 26.889 29.333 21.894 29.333 16c0-7.364-5.969-13.333-13.333-13.333z" />
</svg>